<?xml version="1.0" standalone="no"?>
<!DOCTYPE svg PUBLIC "-//W3C//DTD SVG 20010904//EN"
 "http://www.w3.org/TR/2001/REC-SVG-20010904/DTD/svg10.dtd">
<svg version="1.0" xmlns="http://www.w3.org/2000/svg"
 width="225.000000pt" height="225.000000pt" viewBox="0 0 225.000000 225.000000"
 preserveAspectRatio="xMidYMid meet">

<g transform="translate(0.000000,225.000000) scale(0.100000,-0.100000)"
fill="#000000" stroke="none">
<path d="M980 1934 c-421 -82 -718 -414 -737 -826 -14 -286 82 -523 287 -711
167 -151 364 -227 595 -227 235 0 437 79 603 235 91 86 139 149 192 255 112
222 122 509 26 732 -50 115 -92 181 -170 265 -113 122 -250 207 -406 253 -59
17 -107 23 -220 25 -80 2 -156 1 -170 -1z m491 -375 c79 -28 170 -60 202 -71
45 -16 57 -24 58 -41 1 -17 2 -18 6 -4 7 26 24 21 18 -5 -34 -150 -73 -299
-78 -305 -4 -3 -7 7 -8 23 -1 28 -1 28 -8 4 -6 -24 -11 -25 -85 -28 l-79 -3 7
-162 c3 -89 9 -244 12 -345 l7 -182 -408 0 -408 0 7 228 c3 125 9 280 12 345
l7 117 -77 0 c-70 0 -76 2 -81 23 -7 30 -65 310 -65 312 0 2 82 33 183 70
l182 68 81 -11 c121 -18 254 -12 365 17 3 0 70 -22 150 -50z m-957 -171 c47
-212 53 -248 45 -248 -5 0 -9 1 -9 3 0 2 -16 72 -35 156 -40 173 -38 161 -26
161 5 0 16 -33 25 -72z m1006 -973 c0 -13 -52 -15 -404 -15 -223 0 -407 4
-410 9 -3 4 -3 11 1 15 3 3 188 6 410 6 352 0 403 -2 403 -15z"/>
<path d="M1220 1558 c-30 -5 -108 -8 -172 -6 -79 3 -118 1 -118 -6 1 -31 49
-92 89 -113 104 -54 236 -5 268 100 13 41 17 40 -67 25z"/>
<path d="M1715 1390 c-4 -17 -5 -34 -2 -36 2 -3 7 10 11 27 3 18 4 34 2 36 -2
3 -7 -10 -11 -27z"/>
<path d="M1701 1324 c0 -11 3 -14 6 -6 3 7 2 16 -1 19 -3 4 -6 -2 -5 -13z"/>
<path d="M1691 1284 c0 -11 3 -14 6 -6 3 7 2 16 -1 19 -3 4 -6 -2 -5 -13z"/>
<path d="M1681 1244 c0 -11 3 -14 6 -6 3 7 2 16 -1 19 -3 4 -6 -2 -5 -13z"/>
<path d="M1671 1204 c0 -11 3 -14 6 -6 3 7 2 16 -1 19 -3 4 -6 -2 -5 -13z"/>
</g>
</svg>
