<?xml version="1.0" standalone="no"?>
<!DOCTYPE svg PUBLIC "-//W3C//DTD SVG 20010904//EN"
 "http://www.w3.org/TR/2001/REC-SVG-20010904/DTD/svg10.dtd">
<svg version="1.0" xmlns="http://www.w3.org/2000/svg"
 width="640.000000pt" height="640.000000pt" viewBox="0 0 640.000000 640.000000"
 preserveAspectRatio="xMidYMid meet">

<g transform="translate(0.000000,640.000000) scale(0.100000,-0.100000)"
fill="#000000" stroke="none">
<path d="M2955 5519 c-515 -53 -990 -254 -1380 -582 -492 -414 -802 -986 -887
-1637 -16 -122 -16 -478 0 -600 43 -325 145 -643 295 -915 353 -643 976 -1108
1687 -1259 229 -49 536 -68 760 -47 589 56 1143 315 1560 731 410 409 665 942
730 1525 13 116 13 414 0 530 -65 583 -320 1116 -730 1525 -413 411 -968 673
-1544 729 -125 12 -373 12 -491 0z m555 -1119 l0 -30 675 0 675 0 0 -145 0
-145 -675 0 c-668 0 -675 0 -675 -20 0 -20 -7 -20 -325 -20 -318 0 -325 0
-325 20 0 20 -7 20 -665 20 l-665 0 0 145 0 145 665 0 665 0 0 30 0 30 325 0
325 0 0 -30z m-1244 -507 c3 -36 4 -139 1 -227 -13 -357 -123 -623 -353 -849
-110 -108 -339 -256 -348 -225 -11 36 -36 792 -36 1061 l0 307 364 0 364 0 8
-67z m1861 -10 c-12 -107 -1 -328 22 -443 71 -354 257 -632 554 -827 56 -37
105 -69 110 -73 4 -3 -4 -229 -18 -501 -14 -271 -25 -513 -25 -536 l0 -43
-785 0 -785 0 -4 23 c-3 12 -13 244 -22 514 -10 271 -19 492 -20 490 -2 -2
-10 -201 -19 -442 -8 -242 -18 -473 -21 -512 l-6 -73 -743 0 -743 0 -6 73 c-3
39 -15 266 -26 502 -16 342 -17 432 -7 438 6 4 53 30 102 58 303 171 502 413
604 732 54 169 66 258 66 490 l-1 207 891 0 891 0 -9 -77z m733 -225 c0 -251
-26 -994 -36 -1007 -8 -10 -200 135 -269 204 -226 226 -338 515 -339 875 0 85
3 172 7 193 l8 37 314 0 315 0 0 -302z"/>
</g>
</svg>
