<?xml version="1.0" standalone="no"?>
<!DOCTYPE svg PUBLIC "-//W3C//DTD SVG 20010904//EN"
 "http://www.w3.org/TR/2001/REC-SVG-20010904/DTD/svg10.dtd">
<svg version="1.0" xmlns="http://www.w3.org/2000/svg"
 width="1200.000000pt" height="1200.000000pt" viewBox="0 0 1200.000000 1200.000000"
 preserveAspectRatio="xMidYMid meet">

<g transform="translate(0.000000,1200.000000) scale(0.100000,-0.100000)"
fill="#000000" stroke="none">
<path d="M5295 8839 c-681 -36 -1319 -315 -1808 -788 -269 -261 -440 -496
-597 -823 -371 -775 -373 -1674 -5 -2445 154 -323 323 -559 583 -817 l110
-108 5 38 c4 22 16 99 27 172 l22 132 -72 77 c-91 97 -221 270 -294 392 -533
879 -492 1986 102 2816 97 135 177 228 308 355 483 470 1100 720 1779 720 732
0 1390 -290 1894 -835 252 -272 466 -649 562 -990 12 -44 23 -81 23 -82 1 -1
28 5 60 12 32 8 94 17 137 21 65 5 79 10 79 24 0 25 -67 232 -112 345 -51 127
-161 345 -233 459 -197 315 -513 640 -820 846 -352 236 -755 392 -1173 455
-87 13 -400 38 -427 33 -5 0 -73 -4 -150 -9z"/>
<path d="M5378 8278 c-14 -14 -15 -18 -4 -18 8 0 16 -6 18 -13 2 -9 7 -8 20 4
15 16 15 18 0 32 -15 12 -19 12 -34 -5z"/>
<path d="M5945 7952 c-43 -15 -92 -46 -127 -80 -36 -34 -38 -40 -38 -97 0
-198 -67 -543 -162 -835 -48 -146 -43 -296 13 -428 18 -42 18 -44 -1 -83 -16
-30 -34 -46 -77 -66 -121 -57 -238 -204 -313 -391 -22 -54 -42 -122 -46 -152
-6 -51 -3 -61 35 -132 23 -43 41 -84 41 -93 0 -12 -17 -15 -103 -15 -99 0
-106 -1 -150 -31 -56 -37 -111 -116 -182 -264 -115 -237 -159 -386 -159 -545
0 -117 2 -125 70 -201 27 -31 43 -57 40 -66 -3 -8 -6 -18 -6 -23 0 -15 -63
-68 -89 -75 -82 -20 -217 -151 -308 -299 -68 -111 -157 -241 -249 -363 -91
-121 -134 -192 -141 -236 -5 -34 -4 -36 30 -42 105 -20 193 40 448 303 314
325 409 482 767 1272 39 85 121 259 182 385 345 708 676 1425 800 1735 147
366 165 624 52 743 -52 55 -117 80 -217 83 -49 2 -99 0 -110 -4z"/>
<path d="M4805 7853 c-523 -27 -662 -36 -672 -45 -37 -31 1 -105 105 -202 44
-42 87 -93 97 -113 9 -21 48 -101 87 -178 65 -130 70 -144 66 -192 -6 -65 -69
-196 -139 -290 -43 -56 -49 -70 -41 -88 18 -38 82 -135 91 -135 4 0 28 14 54
31 103 68 221 230 269 369 17 49 23 88 23 155 0 107 -18 166 -81 276 -24 42
-44 88 -44 103 0 34 40 74 129 130 70 44 186 155 174 167 -12 12 -52 16 -118
12z"/>
<path d="M4928 7746 c-31 -34 -97 -91 -147 -125 -50 -34 -93 -66 -96 -71 -3
-5 17 -51 44 -102 114 -213 106 -401 -26 -620 -83 -138 -236 -278 -304 -278
-34 0 -66 33 -118 119 -54 89 -54 115 4 182 25 29 45 58 45 65 0 7 -35 42 -78
78 -44 36 -95 83 -115 105 -45 50 -68 62 -121 64 -52 2 -87 -15 -109 -53 -33
-55 -19 -271 39 -600 14 -80 27 -146 29 -148 2 -2 20 8 42 22 131 85 258 64
270 -45 5 -41 2 -50 -25 -81 -17 -19 -49 -43 -72 -53 l-41 -18 24 -26 c14 -14
30 -36 36 -48 25 -48 6 -138 -39 -183 l-21 -21 21 -26 c27 -34 27 -105 0 -148
-11 -18 -38 -41 -60 -52 l-40 -18 27 -40 c52 -76 33 -181 -45 -252 -33 -30
-34 -34 -19 -50 32 -36 57 -107 57 -164 0 -106 -50 -196 -144 -255 l-43 -27
-7 -141 c-11 -218 -33 -425 -67 -616 -16 -96 -33 -227 -36 -290 -5 -103 -3
-121 15 -163 15 -33 28 -48 46 -53 109 -27 226 114 377 451 79 178 127 258
211 351 37 41 69 87 72 102 3 15 15 97 27 182 11 85 34 205 50 267 58 226 184
499 306 662 162 216 331 573 473 999 100 302 160 676 160 1007 l0 110 -252 29
c-139 15 -262 30 -273 32 -15 3 -36 -13 -77 -60z"/>
<path d="M3881 7427 c-1 -10 -11 -21 -23 -26 l-23 -8 22 -7 c12 -4 24 -15 26
-24 4 -14 5 -15 6 -1 0 9 11 21 24 27 18 9 19 11 4 11 -10 1 -22 11 -27 24 -7
17 -9 18 -9 4z"/>
<path d="M7051 7358 c-8 -27 -19 -48 -27 -48 -7 0 -25 -5 -41 -11 l-28 -12 40
-12 c34 -10 42 -18 56 -56 l17 -44 11 42 c11 39 16 44 59 57 l47 14 -46 12
c-43 11 -47 15 -60 58 l-15 47 -13 -47z"/>
<path d="M6449 6897 c-42 -66 -283 -496 -318 -565 -41 -81 -41 -96 2 -87 59
13 132 44 220 95 127 73 149 69 221 -39 91 -136 203 -216 341 -242 132 -25
333 4 456 66 73 37 74 41 25 123 -23 39 -45 74 -48 77 -3 3 -36 -2 -74 -11
-97 -22 -287 -22 -339 0 -45 19 -59 34 -147 156 -33 47 -77 104 -97 127 -34
38 -58 94 -102 241 -14 49 -63 102 -93 102 -14 0 -30 -15 -47 -43z"/>
<path d="M7154 6811 c-30 -18 -46 -47 -58 -103 -4 -17 4 -52 24 -101 16 -42
30 -83 30 -92 0 -25 30 -139 40 -148 4 -5 37 -1 73 8 37 9 76 15 89 13 26 -4
84 -76 124 -155 34 -69 27 -96 -39 -140 -96 -65 -247 -103 -404 -103 -225 0
-380 83 -504 267 -27 40 -55 73 -61 73 -6 0 -45 -20 -87 -44 -95 -56 -152 -80
-223 -96 l-55 -13 -93 -259 c-51 -142 -91 -261 -89 -262 31 -28 382 -173 556
-230 364 -118 737 -171 1213 -170 219 1 271 4 370 23 218 41 508 38 743 -10
54 -11 182 -47 284 -80 200 -65 192 -65 318 -28 76 22 94 23 345 21 385 -3
503 14 575 83 78 73 24 153 -148 219 -51 20 -166 58 -257 85 -183 54 -342 113
-561 206 l-146 63 -71 -36 c-61 -30 -82 -35 -139 -35 -38 0 -84 7 -104 16 -49
20 -116 82 -139 128 l-19 37 -38 -20 c-57 -29 -148 -22 -198 16 -21 16 -46 44
-57 62 l-20 34 -29 -24 c-34 -29 -78 -40 -120 -31 -36 8 -99 60 -99 82 0 10
-5 13 -17 8 -37 -14 -92 -17 -126 -6 -40 14 -93 68 -103 106 l-6 24 -50 -34
c-77 -54 -160 -42 -188 25 -32 76 21 162 146 236 15 9 -3 25 -127 116 -261
192 -425 288 -489 288 -19 0 -49 -9 -66 -19z"/>
<path d="M8038 6460 c-233 -49 -389 -190 -303 -275 38 -39 74 -33 148 24 l65
50 7 -37 c12 -62 33 -92 82 -114 49 -22 99 -19 141 8 21 14 22 13 22 -9 0 -53
79 -108 132 -92 30 9 76 52 96 90 l16 30 8 -44 c23 -133 162 -193 264 -116 19
15 37 25 38 24 2 -2 14 -28 26 -57 57 -132 208 -181 346 -112 69 34 109 72
101 94 -9 24 -34 19 -75 -14 -39 -31 -110 -60 -146 -60 -88 0 -157 58 -196
164 -32 86 -61 121 -90 106 -17 -9 -20 -17 -15 -44 6 -28 3 -37 -20 -55 -39
-30 -104 -29 -138 3 -22 21 -47 79 -47 113 0 34 -24 63 -51 63 -23 0 -34 -9
-56 -42 -41 -64 -64 -88 -88 -88 -35 0 -45 20 -45 87 0 91 -39 154 -84 137
-13 -5 -15 -16 -10 -59 6 -47 4 -54 -17 -69 -54 -37 -124 -11 -134 52 -22 129
-42 135 -153 45 -57 -45 -92 -55 -92 -25 1 44 90 109 200 146 236 78 648 46
1025 -79 91 -31 244 -105 292 -141 37 -28 61 -31 70 -7 23 59 -323 214 -607
273 -261 54 -544 66 -712 30z"/>
<path d="M3230 6420 c0 -14 -10 -25 -30 -33 l-29 -13 29 -11 c18 -7 30 -19 32
-34 l4 -24 12 27 c7 16 22 30 38 34 l26 7 -31 13 c-20 9 -31 20 -31 34 0 11
-4 20 -10 20 -5 0 -10 -9 -10 -20z"/>
<path d="M4060 6372 c-76 -38 -192 -158 -262 -271 -170 -277 -306 -792 -284
-1080 8 -105 14 -128 34 -136 28 -10 43 16 32 55 -15 52 -12 241 5 355 60 397
215 769 393 944 94 93 210 139 220 88 3 -13 -16 -27 -81 -57 -55 -25 -88 -46
-92 -59 -6 -20 9 -61 23 -61 5 0 25 -15 45 -34 48 -43 50 -84 8 -127 -36 -35
-51 -36 -89 -4 -36 30 -48 31 -62 5 -21 -39 23 -95 103 -129 45 -19 48 -23 45
-53 -4 -41 -34 -58 -105 -58 -54 0 -83 -17 -83 -48 0 -9 28 -42 62 -73 60 -54
63 -59 63 -102 0 -37 -6 -52 -29 -76 -33 -35 -55 -38 -91 -15 -31 20 -55 12
-55 -19 0 -25 41 -88 80 -122 57 -51 79 -159 46 -223 -21 -41 -78 -93 -129
-117 -28 -14 -42 -27 -42 -40 0 -32 58 -23 116 17 145 98 170 265 60 391 l-32
36 33 14 c43 18 84 67 97 114 16 56 -3 109 -55 162 -24 24 -44 45 -44 47 0 2
18 4 40 4 78 0 130 45 130 114 0 31 -7 45 -36 72 -19 19 -29 34 -22 34 19 0
64 49 77 83 24 63 -1 132 -59 165 -16 9 -30 20 -30 23 0 4 25 17 55 29 105 43
138 97 94 154 -29 37 -103 36 -179 -2z"/>
<path d="M8037 6262 c10 -69 40 -94 87 -76 17 6 21 40 8 61 -4 6 -28 21 -54
32 l-47 20 6 -37z"/>
<path d="M8292 6150 c-2 -39 1 -50 13 -50 13 0 55 54 55 72 0 4 -53 28 -64 28
-1 0 -3 -22 -4 -50z"/>
<path d="M4011 6085 c-2 -56 12 -85 44 -85 29 0 49 32 41 63 -4 17 -63 67 -79
67 -2 0 -4 -20 -6 -45z"/>
<path d="M8536 6123 c-9 -9 17 -64 37 -78 40 -28 110 -12 100 23 -3 12 -26 25
-68 39 -35 11 -66 19 -69 16z"/>
<path d="M8859 5981 c25 -49 75 -91 109 -93 42 -2 86 3 94 10 6 6 -199 122
-216 122 -3 0 2 -17 13 -39z"/>
<path d="M3987 5843 c-4 -3 -7 -19 -7 -35 0 -30 6 -32 59 -22 41 9 39 30 -5
49 -42 17 -39 17 -47 8z"/>
<path d="M3321 5641 c-12 -48 -14 -50 -62 -62 -55 -14 -53 -20 7 -37 37 -11
43 -16 54 -58 14 -49 24 -48 37 6 8 30 15 37 56 50 26 8 47 18 47 21 0 4 -20
12 -45 18 -40 10 -45 15 -56 54 -18 61 -24 63 -38 8z"/>
<path d="M3934 5539 c-7 -53 -7 -73 2 -80 34 -28 86 49 64 93 -15 28 -41 58
-50 58 -3 0 -11 -32 -16 -71z"/>
<path d="M5651 5450 c-117 -54 -183 -155 -190 -292 -2 -64 1 -85 19 -123 59
-123 238 -209 518 -250 212 -31 684 -50 1562 -65 349 -5 827 -15 1061 -22 785
-21 961 -3 1409 145 223 74 311 113 359 159 41 40 74 109 60 123 -22 22 -153
17 -319 -13 -91 -17 -230 -38 -310 -46 -309 -34 -413 -65 -511 -153 -31 -28
-50 -37 -88 -41 -55 -5 -55 -5 -91 82 -30 72 -74 109 -182 154 -103 43 -197
61 -396 74 -294 20 -445 -9 -507 -99 -14 -21 -25 -41 -25 -46 0 -22 -44 -107
-56 -107 -7 0 -31 26 -53 59 -74 108 -107 125 -278 141 -189 17 -378 -23 -481
-101 -31 -23 -68 -41 -92 -45 -39 -6 -42 -5 -119 68 -115 111 -184 142 -392
178 -302 51 -550 121 -733 204 -90 41 -105 43 -165 16z"/>
<path d="M3902 5155 c2 -72 7 -124 12 -122 24 8 50 60 53 109 4 45 0 59 -23
96 -16 23 -32 42 -37 42 -5 0 -7 -56 -5 -125z"/>
<path d="M7458 4404 c-487 -613 -1215 -964 -1998 -964 -268 0 -504 34 -751
108 l-96 28 -113 -108 -112 -108 28 -11 c16 -6 88 -30 159 -54 238 -79 473
-121 745 -135 989 -48 1910 410 2486 1236 36 52 65 97 62 99 -2 2 -75 7 -163
11 l-160 7 -87 -109z"/>
<path d="M5447 4351 c-5 -24 -14 -32 -39 -39 -33 -10 -32 -11 17 -27 8 -2 18
-19 23 -37 l8 -33 12 33 c8 23 21 36 43 44 l32 11 -34 11 c-21 7 -35 19 -37
31 -7 35 -19 37 -25 6z"/>
<path d="M6311 4230 c-1 -3 -12 -34 -24 -69 l-22 -64 -69 -21 -69 -21 71 -19
70 -20 18 -60 c9 -34 20 -65 22 -70 3 -5 14 22 26 60 l22 69 69 20 70 21 -71
22 -71 22 -20 67 c-12 38 -22 66 -22 63z"/>
</g>
</svg>
