<?xml version="1.0" standalone="no"?>
<!DOCTYPE svg PUBLIC "-//W3C//DTD SVG 20010904//EN"
 "http://www.w3.org/TR/2001/REC-SVG-20010904/DTD/svg10.dtd">
<svg version="1.0" xmlns="http://www.w3.org/2000/svg"
 width="640.000000pt" height="640.000000pt" viewBox="0 0 640.000000 640.000000"
 preserveAspectRatio="xMidYMid meet">

<g transform="translate(0.000000,640.000000) scale(0.100000,-0.100000)"
fill="#000000" stroke="none">
<path d="M3055 5564 c-502 -40 -919 -200 -1332 -511 -130 -98 -337 -312 -424
-438 -19 -27 -46 -66 -62 -86 -15 -20 -27 -39 -27 -43 0 -4 -13 -26 -28 -49
-76 -112 -172 -321 -230 -497 -82 -250 -115 -461 -115 -740 0 -388 70 -692
243 -1045 119 -245 258 -437 463 -640 190 -188 375 -320 612 -435 350 -171
654 -242 1040 -243 288 -1 487 31 758 120 185 61 527 231 609 303 7 6 45 34
83 61 39 28 89 68 113 90 24 22 48 37 53 33 5 -3 8 -1 7 5 -2 6 24 39 58 73
307 316 528 717 629 1138 42 176 58 327 58 540 0 399 -77 723 -256 1074 -223
440 -588 807 -1023 1028 -254 130 -501 208 -763 243 -117 15 -377 26 -466 19z
m239 -669 c272 -71 499 -359 605 -770 l18 -70 221 -5 c157 -4 225 -9 233 -17
13 -13 43 -343 113 -1248 19 -253 48 -602 63 -775 14 -173 24 -327 20 -341
l-7 -26 -322 -7 c-473 -10 -2408 4 -2408 18 0 6 -4 5 -9 -3 -13 -20 -33 -3
-26 22 5 17 4 19 -4 7 -12 -17 -13 -12 -12 50 3 84 57 781 116 1487 60 707 67
777 81 801 13 20 22 22 93 22 43 0 139 3 213 7 l136 6 6 40 c10 59 83 271 118
341 103 206 257 371 403 432 108 45 245 56 349 29z"/>
<path d="M3059 4796 c-173 -48 -332 -208 -439 -439 -37 -82 -83 -213 -95 -274
l-7 -33 647 0 647 0 -7 33 c-16 75 -78 245 -121 328 -155 299 -396 448 -625
385z"/>
<path d="M1981 3994 c0 -11 3 -14 6 -6 3 7 2 16 -1 19 -3 4 -6 -2 -5 -13z"/>
<path d="M2030 3959 c0 -5 5 -7 10 -4 6 3 10 8 10 11 0 2 -4 4 -10 4 -5 0 -10
-5 -10 -11z"/>
<path d="M2055 3950 c-1 -3 -6 -52 -9 -110 -16 -233 -93 -1188 -141 -1750 -14
-157 -26 -300 -28 -319 l-2 -33 1295 2 c712 0 1296 2 1297 4 1 1 -4 85 -12
187 -7 101 -16 218 -19 259 -2 41 -18 224 -35 405 -17 182 -49 557 -72 835
-22 278 -42 506 -43 507 -4 4 -46 5 -190 4 l-158 -1 7 -37 c4 -21 13 -96 19
-168 9 -104 16 -137 34 -165 12 -19 22 -45 22 -57 0 -56 -48 -103 -106 -103
-35 0 -94 59 -94 94 0 32 26 86 42 86 11 0 7 90 -14 258 l-11 92 -464 2 c-255
2 -556 3 -670 3 l-208 0 -12 -70 c-7 -38 -15 -114 -19 -167 l-7 -97 32 -36
c50 -58 34 -133 -34 -155 -86 -28 -160 67 -111 143 8 12 19 73 25 142 6 66 14
148 17 182 l7 62 -168 3 c-92 2 -168 1 -170 -2z"/>
<path d="M4511 2164 c0 -11 3 -14 6 -6 3 7 2 16 -1 19 -3 4 -6 -2 -5 -13z"/>
<path d="M1811 1694 c0 -11 3 -14 6 -6 3 7 2 16 -1 19 -3 4 -6 -2 -5 -13z"/>
<path d="M1836 1683 c-6 -14 -5 -15 5 -6 7 7 10 15 7 18 -3 3 -9 -2 -12 -12z"/>
<path d="M1333 4895 c-10 -11 -9 -13 6 -12 11 1 17 7 14 14 -6 16 -5 16 -20
-2z"/>
</g>
</svg>
