<?xml version="1.0" standalone="no"?>
<!DOCTYPE svg PUBLIC "-//W3C//DTD SVG 20010904//EN"
 "http://www.w3.org/TR/2001/REC-SVG-20010904/DTD/svg10.dtd">
<svg version="1.0" xmlns="http://www.w3.org/2000/svg"
 width="459.000000pt" height="376.000000pt" viewBox="0 0 459.000000 376.000000"
 preserveAspectRatio="xMidYMid meet">

<g transform="translate(0.000000,376.000000) scale(0.100000,-0.100000)"
fill="#000000" stroke="none">
<path d="M1953 2393 c-103 -70 -165 -196 -269 -543 -25 -85 -48 -157 -50 -159
-7 -7 -157 -31 -286 -46 -70 -8 -137 -19 -148 -25 -77 -41 85 -147 316 -204
218 -54 440 -76 779 -76 349 0 567 22 792 80 228 59 380 159 303 200 -11 6
-78 17 -148 25 -129 15 -279 39 -286 46 -2 2 -25 73 -50 157 -111 363 -165
474 -269 545 -55 37 -124 37 -210 0 -48 -21 -78 -27 -132 -27 -54 0 -84 6
-132 27 -86 37 -155 37 -210 0z m43 -104 c14 -23 90 -49 144 -49 30 0 111 14
180 30 141 33 189 36 249 15 40 -14 115 -64 108 -72 -2 -2 -21 4 -43 13 -59
26 -177 22 -309 -10 -174 -43 -257 -36 -310 26 -39 43 -48 58 -37 58 6 0 14
-5 18 -11z m199 -645 c218 -4 377 -3 469 5 76 7 141 10 143 7 8 -8 -122 -46
-217 -63 -132 -23 -458 -23 -590 0 -94 17 -220 54 -220 64 0 3 19 2 43 -1 23
-3 191 -9 372 -12z"/>
</g>
</svg>
